<mxfile host="app.diagrams.net" agent="Mozilla/5.0 (Windows NT 10.0; Win64; x64) AppleWebKit/537.36 (KHTML, like Gecko) Chrome/135.0.0.0 Safari/537.36" version="26.2.10">
  <diagram id="R2lEEEUBdFMjLlhIrx00" name="Page-1">
    <mxGraphModel dx="1894" dy="527" grid="1" gridSize="10" guides="1" tooltips="1" connect="1" arrows="1" fold="1" page="1" pageScale="1" pageWidth="850" pageHeight="1100" math="0" shadow="0" extFonts="Permanent Marker^https://fonts.googleapis.com/css?family=Permanent+Marker">
      <root>
        <mxCell id="0" />
        <mxCell id="1" parent="0" />
        <mxCell id="cD2ZIDqZozOFpC0rkneJ-1" value="&lt;span&gt;&lt;font style=&quot;font-size: 24px;&quot;&gt;DMS Entity Relationship&lt;/font&gt;&lt;/span&gt;" style="whiteSpace=wrap;html=1;fillColor=#e3c800;strokeColor=#B09500;fontColor=#000000;textShadow=1;labelBackgroundColor=none;labelBorderColor=none;rounded=1;align=center;fontStyle=1" parent="1" vertex="1">
          <mxGeometry x="190" y="10" width="470" height="60" as="geometry" />
        </mxCell>
        <mxCell id="cD2ZIDqZozOFpC0rkneJ-7" value="Doa Activity Master" style="swimlane;fontStyle=1;childLayout=stackLayout;horizontal=1;startSize=26;horizontalStack=0;resizeParent=1;resizeParentMax=0;resizeLast=0;collapsible=1;marginBottom=0;align=center;fontSize=15;fillColor=#e3c800;strokeColor=#B09500;fontColor=#000000;shadow=1;rounded=0;swimlaneFillColor=default;gradientColor=none;labelBackgroundColor=none;" parent="1" vertex="1">
          <mxGeometry x="210" y="110" width="240" height="352" as="geometry">
            <mxRectangle x="70" y="50" width="230" height="30" as="alternateBounds" />
          </mxGeometry>
        </mxCell>
        <mxCell id="cD2ZIDqZozOFpC0rkneJ-8" value="ID PK bigint" style="text;strokeColor=none;fillColor=none;spacingLeft=4;spacingRight=4;overflow=hidden;rotatable=0;points=[[0,0.5],[1,0.5]];portConstraint=eastwest;fontSize=15;whiteSpace=wrap;html=1;align=center;labelBackgroundColor=none;fontStyle=1" parent="cD2ZIDqZozOFpC0rkneJ-7" vertex="1">
          <mxGeometry y="26" width="240" height="30" as="geometry" />
        </mxCell>
        <mxCell id="cD2ZIDqZozOFpC0rkneJ-9" value="ACTIVITY_NAME string&amp;nbsp;" style="text;strokeColor=none;fillColor=none;spacingLeft=4;spacingRight=4;overflow=hidden;rotatable=0;points=[[0,0.5],[1,0.5]];portConstraint=eastwest;fontSize=15;whiteSpace=wrap;html=1;align=center;labelBackgroundColor=none;fontStyle=1" parent="cD2ZIDqZozOFpC0rkneJ-7" vertex="1">
          <mxGeometry y="56" width="240" height="30" as="geometry" />
        </mxCell>
        <mxCell id="cD2ZIDqZozOFpC0rkneJ-10" value="DEPARTMENT_ID bigint" style="text;strokeColor=none;fillColor=none;spacingLeft=4;spacingRight=4;overflow=hidden;rotatable=0;points=[[0,0.5],[1,0.5]];portConstraint=eastwest;fontSize=15;whiteSpace=wrap;html=1;align=center;labelBackgroundColor=none;fontStyle=1" parent="cD2ZIDqZozOFpC0rkneJ-7" vertex="1">
          <mxGeometry y="86" width="240" height="30" as="geometry" />
        </mxCell>
        <mxCell id="cD2ZIDqZozOFpC0rkneJ-11" value="ACTIVITY_DESC text" style="text;strokeColor=none;fillColor=none;spacingLeft=4;spacingRight=4;overflow=hidden;rotatable=0;points=[[0,0.5],[1,0.5]];portConstraint=eastwest;fontSize=15;whiteSpace=wrap;html=1;align=center;labelBackgroundColor=none;fontStyle=1" parent="cD2ZIDqZozOFpC0rkneJ-7" vertex="1">
          <mxGeometry y="116" width="240" height="30" as="geometry" />
        </mxCell>
        <mxCell id="cD2ZIDqZozOFpC0rkneJ-12" value="ACTIVITY_STATUS int" style="text;strokeColor=none;fillColor=none;spacingLeft=4;spacingRight=4;overflow=hidden;rotatable=0;points=[[0,0.5],[1,0.5]];portConstraint=eastwest;fontSize=15;whiteSpace=wrap;html=1;align=center;labelBackgroundColor=none;fontStyle=1" parent="cD2ZIDqZozOFpC0rkneJ-7" vertex="1">
          <mxGeometry y="146" width="240" height="30" as="geometry" />
        </mxCell>
        <mxCell id="cD2ZIDqZozOFpC0rkneJ-15" value="&lt;span style=&quot;color: rgb(0, 0, 0); font-family: Helvetica; font-size: 15px; font-style: normal; font-variant-ligatures: normal; font-variant-caps: normal; letter-spacing: normal; orphans: 2; text-indent: 0px; text-transform: none; widows: 2; word-spacing: 0px; -webkit-text-stroke-width: 0px; white-space: normal; text-decoration-thickness: initial; text-decoration-style: initial; text-decoration-color: initial; float: none; display: inline !important;&quot;&gt;STATUS int&lt;/span&gt;&lt;div&gt;&lt;br&gt;&lt;/div&gt;" style="text;strokeColor=none;fillColor=none;spacingLeft=4;spacingRight=4;overflow=hidden;rotatable=0;points=[[0,0.5],[1,0.5]];portConstraint=eastwest;fontSize=15;whiteSpace=wrap;html=1;labelBackgroundColor=none;align=center;fontStyle=1" parent="cD2ZIDqZozOFpC0rkneJ-7" vertex="1">
          <mxGeometry y="176" width="240" height="34" as="geometry" />
        </mxCell>
        <mxCell id="cD2ZIDqZozOFpC0rkneJ-17" value="CREATED_AT Date" style="text;strokeColor=none;fillColor=none;spacingLeft=4;spacingRight=4;overflow=hidden;rotatable=0;points=[[0,0.5],[1,0.5]];portConstraint=eastwest;fontSize=15;whiteSpace=wrap;html=1;align=center;labelBackgroundColor=none;fontStyle=1" parent="cD2ZIDqZozOFpC0rkneJ-7" vertex="1">
          <mxGeometry y="210" width="240" height="34" as="geometry" />
        </mxCell>
        <mxCell id="cD2ZIDqZozOFpC0rkneJ-32" value="&lt;span style=&quot;color: rgb(0, 0, 0); font-family: Helvetica; font-size: 15px; font-style: normal; font-variant-ligatures: normal; font-variant-caps: normal; letter-spacing: normal; orphans: 2; text-indent: 0px; text-transform: none; widows: 2; word-spacing: 0px; -webkit-text-stroke-width: 0px; white-space: normal; text-decoration-thickness: initial; text-decoration-style: initial; text-decoration-color: initial; float: none; display: inline !important;&quot;&gt;CREATED_BY bigint&lt;/span&gt;" style="text;whiteSpace=wrap;html=1;labelBackgroundColor=none;align=center;fontStyle=1" parent="cD2ZIDqZozOFpC0rkneJ-7" vertex="1">
          <mxGeometry y="244" width="240" height="40" as="geometry" />
        </mxCell>
        <mxCell id="cD2ZIDqZozOFpC0rkneJ-18" value="UPDATED_BY bigint" style="text;strokeColor=none;fillColor=none;spacingLeft=4;spacingRight=4;overflow=hidden;rotatable=0;points=[[0,0.5],[1,0.5]];portConstraint=eastwest;fontSize=15;whiteSpace=wrap;html=1;align=center;labelBackgroundColor=none;fontStyle=1" parent="cD2ZIDqZozOFpC0rkneJ-7" vertex="1">
          <mxGeometry y="284" width="240" height="34" as="geometry" />
        </mxCell>
        <mxCell id="cD2ZIDqZozOFpC0rkneJ-19" value="UPDATED_AT Date" style="text;strokeColor=none;fillColor=none;spacingLeft=4;spacingRight=4;overflow=hidden;rotatable=0;points=[[0,0.5],[1,0.5]];portConstraint=eastwest;fontSize=15;whiteSpace=wrap;html=1;align=center;labelBackgroundColor=none;fontStyle=1" parent="cD2ZIDqZozOFpC0rkneJ-7" vertex="1">
          <mxGeometry y="318" width="240" height="34" as="geometry" />
        </mxCell>
        <mxCell id="cD2ZIDqZozOFpC0rkneJ-20" value="Doa ActivityÂ  Approval User" style="swimlane;fontStyle=1;childLayout=stackLayout;horizontal=1;startSize=26;horizontalStack=0;resizeParent=1;resizeParentMax=0;resizeLast=0;collapsible=1;marginBottom=0;align=center;fontSize=15;fillColor=#e3c800;strokeColor=#B09500;fontColor=#000000;shadow=1;rounded=0;swimlaneFillColor=default;gradientColor=none;labelBackgroundColor=none;" parent="1" vertex="1">
          <mxGeometry x="580" y="210" width="240" height="358" as="geometry">
            <mxRectangle x="70" y="50" width="230" height="30" as="alternateBounds" />
          </mxGeometry>
        </mxCell>
        <mxCell id="cD2ZIDqZozOFpC0rkneJ-21" value="ID PK bigint" style="text;strokeColor=none;fillColor=none;spacingLeft=4;spacingRight=4;overflow=hidden;rotatable=0;points=[[0,0.5],[1,0.5]];portConstraint=eastwest;fontSize=15;whiteSpace=wrap;html=1;align=center;labelBackgroundColor=none;fontStyle=1" parent="cD2ZIDqZozOFpC0rkneJ-20" vertex="1">
          <mxGeometry y="26" width="240" height="30" as="geometry" />
        </mxCell>
        <mxCell id="cD2ZIDqZozOFpC0rkneJ-22" value="ACTIVITY_ID bigint" style="text;strokeColor=none;fillColor=none;spacingLeft=4;spacingRight=4;overflow=hidden;rotatable=0;points=[[0,0.5],[1,0.5]];portConstraint=eastwest;fontSize=15;whiteSpace=wrap;html=1;align=center;labelBackgroundColor=none;fontStyle=1" parent="cD2ZIDqZozOFpC0rkneJ-20" vertex="1">
          <mxGeometry y="56" width="240" height="30" as="geometry" />
        </mxCell>
        <mxCell id="cD2ZIDqZozOFpC0rkneJ-23" value="USER_TYPE varchar" style="text;strokeColor=none;fillColor=none;spacingLeft=4;spacingRight=4;overflow=hidden;rotatable=0;points=[[0,0.5],[1,0.5]];portConstraint=eastwest;fontSize=15;whiteSpace=wrap;html=1;align=center;labelBackgroundColor=none;fontStyle=1" parent="cD2ZIDqZozOFpC0rkneJ-20" vertex="1">
          <mxGeometry y="86" width="240" height="30" as="geometry" />
        </mxCell>
        <mxCell id="cD2ZIDqZozOFpC0rkneJ-24" value="USER_ID bigint" style="text;strokeColor=none;fillColor=none;spacingLeft=4;spacingRight=4;overflow=hidden;rotatable=0;points=[[0,0.5],[1,0.5]];portConstraint=eastwest;fontSize=15;whiteSpace=wrap;html=1;align=center;labelBackgroundColor=none;fontStyle=1" parent="cD2ZIDqZozOFpC0rkneJ-20" vertex="1">
          <mxGeometry y="116" width="240" height="30" as="geometry" />
        </mxCell>
        <mxCell id="cD2ZIDqZozOFpC0rkneJ-25" value="PROFILE_ID bigint&amp;nbsp;" style="text;strokeColor=none;fillColor=none;spacingLeft=4;spacingRight=4;overflow=hidden;rotatable=0;points=[[0,0.5],[1,0.5]];portConstraint=eastwest;fontSize=15;whiteSpace=wrap;html=1;align=center;labelBackgroundColor=none;fontStyle=1" parent="cD2ZIDqZozOFpC0rkneJ-20" vertex="1">
          <mxGeometry y="146" width="240" height="30" as="geometry" />
        </mxCell>
        <mxCell id="cD2ZIDqZozOFpC0rkneJ-26" value="&lt;span style=&quot;color: rgb(0, 0, 0); font-family: Helvetica; font-size: 15px; font-style: normal; font-variant-ligatures: normal; font-variant-caps: normal; letter-spacing: normal; orphans: 2; text-indent: 0px; text-transform: none; widows: 2; word-spacing: 0px; -webkit-text-stroke-width: 0px; white-space: normal; text-decoration-thickness: initial; text-decoration-style: initial; text-decoration-color: initial; float: none; display: inline !important;&quot;&gt;STATUS int&lt;/span&gt;&lt;div&gt;&lt;br&gt;&lt;/div&gt;" style="text;strokeColor=none;fillColor=none;spacingLeft=4;spacingRight=4;overflow=hidden;rotatable=0;points=[[0,0.5],[1,0.5]];portConstraint=eastwest;fontSize=15;whiteSpace=wrap;html=1;labelBackgroundColor=none;align=center;fontStyle=1" parent="cD2ZIDqZozOFpC0rkneJ-20" vertex="1">
          <mxGeometry y="176" width="240" height="34" as="geometry" />
        </mxCell>
        <mxCell id="cD2ZIDqZozOFpC0rkneJ-27" value="CREATED_AT Date" style="text;strokeColor=none;fillColor=none;spacingLeft=4;spacingRight=4;overflow=hidden;rotatable=0;points=[[0,0.5],[1,0.5]];portConstraint=eastwest;fontSize=15;whiteSpace=wrap;html=1;align=center;labelBackgroundColor=none;fontStyle=1" parent="cD2ZIDqZozOFpC0rkneJ-20" vertex="1">
          <mxGeometry y="210" width="240" height="34" as="geometry" />
        </mxCell>
        <mxCell id="cD2ZIDqZozOFpC0rkneJ-28" value="UPDATED_BY int" style="text;strokeColor=none;fillColor=none;spacingLeft=4;spacingRight=4;overflow=hidden;rotatable=0;points=[[0,0.5],[1,0.5]];portConstraint=eastwest;fontSize=15;whiteSpace=wrap;html=1;align=center;labelBackgroundColor=none;fontStyle=1" parent="cD2ZIDqZozOFpC0rkneJ-20" vertex="1">
          <mxGeometry y="244" width="240" height="34" as="geometry" />
        </mxCell>
        <mxCell id="cD2ZIDqZozOFpC0rkneJ-31" value="&lt;span style=&quot;color: rgb(0, 0, 0); font-family: Helvetica; font-size: 15px; font-style: normal; font-variant-ligatures: normal; font-variant-caps: normal; letter-spacing: normal; orphans: 2; text-indent: 0px; text-transform: none; widows: 2; word-spacing: 0px; -webkit-text-stroke-width: 0px; white-space: normal; text-decoration-thickness: initial; text-decoration-style: initial; text-decoration-color: initial; float: none; display: inline !important;&quot;&gt;CREATED_BY bigint&lt;/span&gt;" style="text;whiteSpace=wrap;html=1;labelBackgroundColor=none;align=center;fontStyle=1" parent="cD2ZIDqZozOFpC0rkneJ-20" vertex="1">
          <mxGeometry y="278" width="240" height="40" as="geometry" />
        </mxCell>
        <mxCell id="cD2ZIDqZozOFpC0rkneJ-30" value="&lt;span style=&quot;color: rgb(0, 0, 0); font-family: Helvetica; font-size: 15px; font-style: normal; font-variant-ligatures: normal; font-variant-caps: normal; letter-spacing: normal; orphans: 2; text-indent: 0px; text-transform: none; widows: 2; word-spacing: 0px; -webkit-text-stroke-width: 0px; white-space: normal; text-decoration-thickness: initial; text-decoration-style: initial; text-decoration-color: initial; float: none; display: inline !important;&quot;&gt;UPDATED_AT Date&lt;/span&gt;" style="text;whiteSpace=wrap;html=1;labelBackgroundColor=none;align=center;fontStyle=1" parent="cD2ZIDqZozOFpC0rkneJ-20" vertex="1">
          <mxGeometry y="318" width="240" height="40" as="geometry" />
        </mxCell>
        <mxCell id="cD2ZIDqZozOFpC0rkneJ-34" value="" style="edgeStyle=entityRelationEdgeStyle;fontSize=12;html=1;endArrow=ERzeroToMany;endFill=1;rounded=0;entryX=0;entryY=0.5;entryDx=0;entryDy=0;exitX=1;exitY=0.5;exitDx=0;exitDy=0;align=center;labelBackgroundColor=none;fontStyle=1;strokeWidth=3;" parent="1" source="cD2ZIDqZozOFpC0rkneJ-8" target="cD2ZIDqZozOFpC0rkneJ-22" edge="1">
          <mxGeometry width="100" height="100" relative="1" as="geometry">
            <mxPoint x="280" y="150" as="sourcePoint" />
            <mxPoint x="380" y="50" as="targetPoint" />
          </mxGeometry>
        </mxCell>
        <mxCell id="cD2ZIDqZozOFpC0rkneJ-36" value="Ia Profile Mst" style="swimlane;fontStyle=1;childLayout=stackLayout;horizontal=1;startSize=30;horizontalStack=0;resizeParent=1;resizeParentMax=0;resizeLast=0;collapsible=1;marginBottom=0;align=center;fontSize=15;fillColor=#e3c800;strokeColor=#B09500;fontColor=#000000;shadow=1;rounded=0;swimlaneFillColor=default;gradientColor=none;labelBackgroundColor=none;" parent="1" vertex="1">
          <mxGeometry x="960" y="500" width="240" height="356" as="geometry">
            <mxRectangle x="70" y="50" width="230" height="30" as="alternateBounds" />
          </mxGeometry>
        </mxCell>
        <mxCell id="cD2ZIDqZozOFpC0rkneJ-37" value="ID PK bigint" style="text;strokeColor=none;fillColor=none;spacingLeft=4;spacingRight=4;overflow=hidden;rotatable=0;points=[[0,0.5],[1,0.5]];portConstraint=eastwest;fontSize=15;whiteSpace=wrap;html=1;align=center;labelBackgroundColor=none;fontStyle=1" parent="cD2ZIDqZozOFpC0rkneJ-36" vertex="1">
          <mxGeometry y="30" width="240" height="30" as="geometry" />
        </mxCell>
        <mxCell id="cD2ZIDqZozOFpC0rkneJ-38" value="PROFILE_NAME varchar(255)" style="text;strokeColor=none;fillColor=none;spacingLeft=4;spacingRight=4;overflow=hidden;rotatable=0;points=[[0,0.5],[1,0.5]];portConstraint=eastwest;fontSize=15;whiteSpace=wrap;html=1;align=center;labelBackgroundColor=none;fontStyle=1" parent="cD2ZIDqZozOFpC0rkneJ-36" vertex="1">
          <mxGeometry y="60" width="240" height="30" as="geometry" />
        </mxCell>
        <mxCell id="cD2ZIDqZozOFpC0rkneJ-39" value="IS_DELETABLE int&amp;nbsp;" style="text;strokeColor=none;fillColor=none;spacingLeft=4;spacingRight=4;overflow=hidden;rotatable=0;points=[[0,0.5],[1,0.5]];portConstraint=eastwest;fontSize=15;whiteSpace=wrap;html=1;align=center;labelBackgroundColor=none;fontStyle=1" parent="cD2ZIDqZozOFpC0rkneJ-36" vertex="1">
          <mxGeometry y="90" width="240" height="30" as="geometry" />
        </mxCell>
        <mxCell id="cD2ZIDqZozOFpC0rkneJ-40" value="IS_EDITABLE int&amp;nbsp;" style="text;strokeColor=none;fillColor=none;spacingLeft=4;spacingRight=4;overflow=hidden;rotatable=0;points=[[0,0.5],[1,0.5]];portConstraint=eastwest;fontSize=15;whiteSpace=wrap;html=1;align=center;labelBackgroundColor=none;fontStyle=1" parent="cD2ZIDqZozOFpC0rkneJ-36" vertex="1">
          <mxGeometry y="120" width="240" height="30" as="geometry" />
        </mxCell>
        <mxCell id="cD2ZIDqZozOFpC0rkneJ-41" value="TYPE int&amp;nbsp;" style="text;strokeColor=none;fillColor=none;spacingLeft=4;spacingRight=4;overflow=hidden;rotatable=0;points=[[0,0.5],[1,0.5]];portConstraint=eastwest;fontSize=15;whiteSpace=wrap;html=1;align=center;labelBackgroundColor=none;fontStyle=1" parent="cD2ZIDqZozOFpC0rkneJ-36" vertex="1">
          <mxGeometry y="150" width="240" height="30" as="geometry" />
        </mxCell>
        <mxCell id="cD2ZIDqZozOFpC0rkneJ-42" value="&lt;span style=&quot;color: rgb(0, 0, 0); font-family: Helvetica; font-size: 15px; font-style: normal; font-variant-ligatures: normal; font-variant-caps: normal; letter-spacing: normal; orphans: 2; text-indent: 0px; text-transform: none; widows: 2; word-spacing: 0px; -webkit-text-stroke-width: 0px; white-space: normal; text-decoration-thickness: initial; text-decoration-style: initial; text-decoration-color: initial; float: none; display: inline !important;&quot;&gt;STATUS int&lt;/span&gt;&lt;div&gt;&lt;br&gt;&lt;/div&gt;" style="text;strokeColor=none;fillColor=none;spacingLeft=4;spacingRight=4;overflow=hidden;rotatable=0;points=[[0,0.5],[1,0.5]];portConstraint=eastwest;fontSize=15;whiteSpace=wrap;html=1;labelBackgroundColor=none;align=center;fontStyle=1" parent="cD2ZIDqZozOFpC0rkneJ-36" vertex="1">
          <mxGeometry y="180" width="240" height="34" as="geometry" />
        </mxCell>
        <mxCell id="cD2ZIDqZozOFpC0rkneJ-43" value="CREATED_AT Date" style="text;strokeColor=none;fillColor=none;spacingLeft=4;spacingRight=4;overflow=hidden;rotatable=0;points=[[0,0.5],[1,0.5]];portConstraint=eastwest;fontSize=15;whiteSpace=wrap;html=1;align=center;labelBackgroundColor=none;fontStyle=1" parent="cD2ZIDqZozOFpC0rkneJ-36" vertex="1">
          <mxGeometry y="214" width="240" height="34" as="geometry" />
        </mxCell>
        <mxCell id="cD2ZIDqZozOFpC0rkneJ-44" value="&lt;span style=&quot;color: rgb(0, 0, 0); font-family: Helvetica; font-size: 15px; font-style: normal; font-variant-ligatures: normal; font-variant-caps: normal; letter-spacing: normal; orphans: 2; text-indent: 0px; text-transform: none; widows: 2; word-spacing: 0px; -webkit-text-stroke-width: 0px; white-space: normal; text-decoration-thickness: initial; text-decoration-style: initial; text-decoration-color: initial; float: none; display: inline !important;&quot;&gt;CREATED_BY bigint&lt;/span&gt;" style="text;whiteSpace=wrap;html=1;align=center;labelBackgroundColor=none;fontStyle=1" parent="cD2ZIDqZozOFpC0rkneJ-36" vertex="1">
          <mxGeometry y="248" width="240" height="40" as="geometry" />
        </mxCell>
        <mxCell id="cD2ZIDqZozOFpC0rkneJ-45" value="UPDATED_BY bigint" style="text;strokeColor=none;fillColor=none;spacingLeft=4;spacingRight=4;overflow=hidden;rotatable=0;points=[[0,0.5],[1,0.5]];portConstraint=eastwest;fontSize=15;whiteSpace=wrap;html=1;align=center;labelBackgroundColor=none;fontStyle=1" parent="cD2ZIDqZozOFpC0rkneJ-36" vertex="1">
          <mxGeometry y="288" width="240" height="34" as="geometry" />
        </mxCell>
        <mxCell id="cD2ZIDqZozOFpC0rkneJ-46" value="UPDATED_AT Date" style="text;strokeColor=none;fillColor=none;spacingLeft=4;spacingRight=4;overflow=hidden;rotatable=0;points=[[0,0.5],[1,0.5]];portConstraint=eastwest;fontSize=15;whiteSpace=wrap;html=1;align=center;labelBackgroundColor=none;fontStyle=1" parent="cD2ZIDqZozOFpC0rkneJ-36" vertex="1">
          <mxGeometry y="322" width="240" height="34" as="geometry" />
        </mxCell>
        <mxCell id="cD2ZIDqZozOFpC0rkneJ-49" value="" style="edgeStyle=entityRelationEdgeStyle;fontSize=12;html=1;endArrow=ERzeroToMany;endFill=1;rounded=0;entryX=1;entryY=0.5;entryDx=0;entryDy=0;strokeWidth=3;" parent="1" source="cD2ZIDqZozOFpC0rkneJ-37" target="cD2ZIDqZozOFpC0rkneJ-25" edge="1">
          <mxGeometry width="100" height="100" relative="1" as="geometry">
            <mxPoint x="830" y="462" as="sourcePoint" />
            <mxPoint x="930" y="362" as="targetPoint" />
          </mxGeometry>
        </mxCell>
        <mxCell id="cD2ZIDqZozOFpC0rkneJ-50" value="Ia Org Hierarchy Master" style="swimlane;fontStyle=1;childLayout=stackLayout;horizontal=1;startSize=30;horizontalStack=0;resizeParent=1;resizeParentMax=0;resizeLast=0;collapsible=1;marginBottom=0;align=center;fontSize=15;fillColor=#e3c800;strokeColor=#B09500;fontColor=#000000;shadow=1;rounded=0;swimlaneFillColor=default;gradientColor=none;labelBackgroundColor=none;" parent="1" vertex="1">
          <mxGeometry x="-140" y="250" width="240" height="386" as="geometry">
            <mxRectangle x="70" y="50" width="230" height="30" as="alternateBounds" />
          </mxGeometry>
        </mxCell>
        <mxCell id="cD2ZIDqZozOFpC0rkneJ-51" value="ID PK bigint" style="text;strokeColor=none;fillColor=none;spacingLeft=4;spacingRight=4;overflow=hidden;rotatable=0;points=[[0,0.5],[1,0.5]];portConstraint=eastwest;fontSize=15;whiteSpace=wrap;html=1;align=center;labelBackgroundColor=none;fontStyle=1" parent="cD2ZIDqZozOFpC0rkneJ-50" vertex="1">
          <mxGeometry y="30" width="240" height="30" as="geometry" />
        </mxCell>
        <mxCell id="cD2ZIDqZozOFpC0rkneJ-52" value="NAME varchar(255)" style="text;strokeColor=none;fillColor=none;spacingLeft=4;spacingRight=4;overflow=hidden;rotatable=0;points=[[0,0.5],[1,0.5]];portConstraint=eastwest;fontSize=15;whiteSpace=wrap;html=1;align=center;labelBackgroundColor=none;fontStyle=1" parent="cD2ZIDqZozOFpC0rkneJ-50" vertex="1">
          <mxGeometry y="60" width="240" height="30" as="geometry" />
        </mxCell>
        <mxCell id="cD2ZIDqZozOFpC0rkneJ-53" value="PARENT_ID int&amp;nbsp;" style="text;strokeColor=none;fillColor=none;spacingLeft=4;spacingRight=4;overflow=hidden;rotatable=0;points=[[0,0.5],[1,0.5]];portConstraint=eastwest;fontSize=15;whiteSpace=wrap;html=1;align=center;labelBackgroundColor=none;fontStyle=1" parent="cD2ZIDqZozOFpC0rkneJ-50" vertex="1">
          <mxGeometry y="90" width="240" height="30" as="geometry" />
        </mxCell>
        <mxCell id="cD2ZIDqZozOFpC0rkneJ-54" value="TYPE bigint&amp;nbsp;" style="text;strokeColor=none;fillColor=none;spacingLeft=4;spacingRight=4;overflow=hidden;rotatable=0;points=[[0,0.5],[1,0.5]];portConstraint=eastwest;fontSize=15;whiteSpace=wrap;html=1;align=center;labelBackgroundColor=none;fontStyle=1" parent="cD2ZIDqZozOFpC0rkneJ-50" vertex="1">
          <mxGeometry y="120" width="240" height="30" as="geometry" />
        </mxCell>
        <mxCell id="cD2ZIDqZozOFpC0rkneJ-55" value="OWNER bigint&amp;nbsp;" style="text;strokeColor=none;fillColor=none;spacingLeft=4;spacingRight=4;overflow=hidden;rotatable=0;points=[[0,0.5],[1,0.5]];portConstraint=eastwest;fontSize=15;whiteSpace=wrap;html=1;align=center;labelBackgroundColor=none;fontStyle=1" parent="cD2ZIDqZozOFpC0rkneJ-50" vertex="1">
          <mxGeometry y="150" width="240" height="30" as="geometry" />
        </mxCell>
        <mxCell id="cD2ZIDqZozOFpC0rkneJ-62" value="REF_ID varchar(255)" style="text;strokeColor=none;fillColor=none;spacingLeft=4;spacingRight=4;overflow=hidden;rotatable=0;points=[[0,0.5],[1,0.5]];portConstraint=eastwest;fontSize=15;whiteSpace=wrap;html=1;align=center;labelBackgroundColor=none;fontStyle=1" parent="cD2ZIDqZozOFpC0rkneJ-50" vertex="1">
          <mxGeometry y="180" width="240" height="30" as="geometry" />
        </mxCell>
        <mxCell id="cD2ZIDqZozOFpC0rkneJ-56" value="&lt;span style=&quot;color: rgb(0, 0, 0); font-family: Helvetica; font-size: 15px; font-style: normal; font-variant-ligatures: normal; font-variant-caps: normal; letter-spacing: normal; orphans: 2; text-indent: 0px; text-transform: none; widows: 2; word-spacing: 0px; -webkit-text-stroke-width: 0px; white-space: normal; text-decoration-thickness: initial; text-decoration-style: initial; text-decoration-color: initial; float: none; display: inline !important;&quot;&gt;STATUS int&lt;/span&gt;&lt;div&gt;&lt;br&gt;&lt;/div&gt;" style="text;strokeColor=none;fillColor=none;spacingLeft=4;spacingRight=4;overflow=hidden;rotatable=0;points=[[0,0.5],[1,0.5]];portConstraint=eastwest;fontSize=15;whiteSpace=wrap;html=1;labelBackgroundColor=none;align=center;fontStyle=1" parent="cD2ZIDqZozOFpC0rkneJ-50" vertex="1">
          <mxGeometry y="210" width="240" height="34" as="geometry" />
        </mxCell>
        <mxCell id="cD2ZIDqZozOFpC0rkneJ-57" value="CREATED_AT Date" style="text;strokeColor=none;fillColor=none;spacingLeft=4;spacingRight=4;overflow=hidden;rotatable=0;points=[[0,0.5],[1,0.5]];portConstraint=eastwest;fontSize=15;whiteSpace=wrap;html=1;align=center;labelBackgroundColor=none;fontStyle=1" parent="cD2ZIDqZozOFpC0rkneJ-50" vertex="1">
          <mxGeometry y="244" width="240" height="34" as="geometry" />
        </mxCell>
        <mxCell id="cD2ZIDqZozOFpC0rkneJ-58" value="&lt;span style=&quot;color: rgb(0, 0, 0); font-family: Helvetica; font-size: 15px; font-style: normal; font-variant-ligatures: normal; font-variant-caps: normal; letter-spacing: normal; orphans: 2; text-indent: 0px; text-transform: none; widows: 2; word-spacing: 0px; -webkit-text-stroke-width: 0px; white-space: normal; text-decoration-thickness: initial; text-decoration-style: initial; text-decoration-color: initial; float: none; display: inline !important;&quot;&gt;CREATED_BY bigint&lt;/span&gt;" style="text;whiteSpace=wrap;html=1;align=center;labelBackgroundColor=none;fontStyle=1" parent="cD2ZIDqZozOFpC0rkneJ-50" vertex="1">
          <mxGeometry y="278" width="240" height="40" as="geometry" />
        </mxCell>
        <mxCell id="cD2ZIDqZozOFpC0rkneJ-59" value="UPDATED_BY bigint" style="text;strokeColor=none;fillColor=none;spacingLeft=4;spacingRight=4;overflow=hidden;rotatable=0;points=[[0,0.5],[1,0.5]];portConstraint=eastwest;fontSize=15;whiteSpace=wrap;html=1;align=center;labelBackgroundColor=none;fontStyle=1" parent="cD2ZIDqZozOFpC0rkneJ-50" vertex="1">
          <mxGeometry y="318" width="240" height="34" as="geometry" />
        </mxCell>
        <mxCell id="cD2ZIDqZozOFpC0rkneJ-60" value="UPDATED_AT Date" style="text;strokeColor=none;fillColor=none;spacingLeft=4;spacingRight=4;overflow=hidden;rotatable=0;points=[[0,0.5],[1,0.5]];portConstraint=eastwest;fontSize=15;whiteSpace=wrap;html=1;align=center;labelBackgroundColor=none;fontStyle=1" parent="cD2ZIDqZozOFpC0rkneJ-50" vertex="1">
          <mxGeometry y="352" width="240" height="34" as="geometry" />
        </mxCell>
        <mxCell id="cD2ZIDqZozOFpC0rkneJ-63" value="" style="edgeStyle=entityRelationEdgeStyle;fontSize=12;html=1;endArrow=ERzeroToMany;endFill=1;rounded=0;entryX=0;entryY=0.5;entryDx=0;entryDy=0;exitX=1;exitY=0.5;exitDx=0;exitDy=0;strokeWidth=3;" parent="1" source="cD2ZIDqZozOFpC0rkneJ-51" target="cD2ZIDqZozOFpC0rkneJ-10" edge="1">
          <mxGeometry width="100" height="100" relative="1" as="geometry">
            <mxPoint x="310" y="450" as="sourcePoint" />
            <mxPoint x="410" y="350" as="targetPoint" />
            <Array as="points">
              <mxPoint x="360" y="480" />
            </Array>
          </mxGeometry>
        </mxCell>
        <mxCell id="cD2ZIDqZozOFpC0rkneJ-64" value="Ia Users" style="swimlane;fontStyle=1;childLayout=stackLayout;horizontal=1;startSize=30;horizontalStack=0;resizeParent=1;resizeParentMax=0;resizeLast=0;collapsible=1;marginBottom=0;align=center;fontSize=15;fillColor=#e3c800;strokeColor=#B09500;fontColor=#000000;shadow=1;rounded=0;swimlaneFillColor=default;gradientColor=none;labelBackgroundColor=none;" parent="1" vertex="1">
          <mxGeometry x="960" y="70" width="240" height="386" as="geometry">
            <mxRectangle x="70" y="50" width="230" height="30" as="alternateBounds" />
          </mxGeometry>
        </mxCell>
        <mxCell id="cD2ZIDqZozOFpC0rkneJ-65" value="ID PK bigint" style="text;strokeColor=none;fillColor=none;spacingLeft=4;spacingRight=4;overflow=hidden;rotatable=0;points=[[0,0.5],[1,0.5]];portConstraint=eastwest;fontSize=15;whiteSpace=wrap;html=1;align=center;labelBackgroundColor=none;fontStyle=1" parent="cD2ZIDqZozOFpC0rkneJ-64" vertex="1">
          <mxGeometry y="30" width="240" height="30" as="geometry" />
        </mxCell>
        <mxCell id="cD2ZIDqZozOFpC0rkneJ-66" value="IRM_USER_ID bigint" style="text;strokeColor=none;fillColor=none;spacingLeft=4;spacingRight=4;overflow=hidden;rotatable=0;points=[[0,0.5],[1,0.5]];portConstraint=eastwest;fontSize=15;whiteSpace=wrap;html=1;align=center;labelBackgroundColor=none;fontStyle=1" parent="cD2ZIDqZozOFpC0rkneJ-64" vertex="1">
          <mxGeometry y="60" width="240" height="30" as="geometry" />
        </mxCell>
        <mxCell id="cD2ZIDqZozOFpC0rkneJ-67" value="PROFILE_ID bigint" style="text;strokeColor=none;fillColor=none;spacingLeft=4;spacingRight=4;overflow=hidden;rotatable=0;points=[[0,0.5],[1,0.5]];portConstraint=eastwest;fontSize=15;whiteSpace=wrap;html=1;align=center;labelBackgroundColor=none;fontStyle=1" parent="cD2ZIDqZozOFpC0rkneJ-64" vertex="1">
          <mxGeometry y="90" width="240" height="30" as="geometry" />
        </mxCell>
        <mxCell id="cD2ZIDqZozOFpC0rkneJ-68" value="CUST_ID&lt;span style=&quot;white-space: pre;&quot;&gt;&#x9;&lt;/span&gt;bigint" style="text;strokeColor=none;fillColor=none;spacingLeft=4;spacingRight=4;overflow=hidden;rotatable=0;points=[[0,0.5],[1,0.5]];portConstraint=eastwest;fontSize=15;whiteSpace=wrap;html=1;align=center;labelBackgroundColor=none;fontStyle=1" parent="cD2ZIDqZozOFpC0rkneJ-64" vertex="1">
          <mxGeometry y="120" width="240" height="30" as="geometry" />
        </mxCell>
        <mxCell id="cD2ZIDqZozOFpC0rkneJ-69" value="IS_ADMIN char(1)" style="text;strokeColor=none;fillColor=none;spacingLeft=4;spacingRight=4;overflow=hidden;rotatable=0;points=[[0,0.5],[1,0.5]];portConstraint=eastwest;fontSize=15;whiteSpace=wrap;html=1;align=center;labelBackgroundColor=none;fontStyle=1" parent="cD2ZIDqZozOFpC0rkneJ-64" vertex="1">
          <mxGeometry y="150" width="240" height="30" as="geometry" />
        </mxCell>
        <mxCell id="cD2ZIDqZozOFpC0rkneJ-75" value="DESIGNATION varchar(255)" style="text;strokeColor=none;fillColor=none;spacingLeft=4;spacingRight=4;overflow=hidden;rotatable=0;points=[[0,0.5],[1,0.5]];portConstraint=eastwest;fontSize=15;whiteSpace=wrap;html=1;align=center;labelBackgroundColor=none;fontStyle=1" parent="cD2ZIDqZozOFpC0rkneJ-64" vertex="1">
          <mxGeometry y="180" width="240" height="30" as="geometry" />
        </mxCell>
        <mxCell id="cD2ZIDqZozOFpC0rkneJ-70" value="&lt;span style=&quot;color: rgb(0, 0, 0); font-family: Helvetica; font-size: 15px; font-style: normal; font-variant-ligatures: normal; font-variant-caps: normal; letter-spacing: normal; orphans: 2; text-indent: 0px; text-transform: none; widows: 2; word-spacing: 0px; -webkit-text-stroke-width: 0px; white-space: normal; text-decoration-thickness: initial; text-decoration-style: initial; text-decoration-color: initial; float: none; display: inline !important;&quot;&gt;STATUS int&lt;/span&gt;&lt;div&gt;&lt;br&gt;&lt;/div&gt;" style="text;strokeColor=none;fillColor=none;spacingLeft=4;spacingRight=4;overflow=hidden;rotatable=0;points=[[0,0.5],[1,0.5]];portConstraint=eastwest;fontSize=15;whiteSpace=wrap;html=1;labelBackgroundColor=none;align=center;fontStyle=1" parent="cD2ZIDqZozOFpC0rkneJ-64" vertex="1">
          <mxGeometry y="210" width="240" height="34" as="geometry" />
        </mxCell>
        <mxCell id="cD2ZIDqZozOFpC0rkneJ-71" value="CREATED_AT Date" style="text;strokeColor=none;fillColor=none;spacingLeft=4;spacingRight=4;overflow=hidden;rotatable=0;points=[[0,0.5],[1,0.5]];portConstraint=eastwest;fontSize=15;whiteSpace=wrap;html=1;align=center;labelBackgroundColor=none;fontStyle=1" parent="cD2ZIDqZozOFpC0rkneJ-64" vertex="1">
          <mxGeometry y="244" width="240" height="34" as="geometry" />
        </mxCell>
        <mxCell id="cD2ZIDqZozOFpC0rkneJ-72" value="&lt;span style=&quot;color: rgb(0, 0, 0); font-family: Helvetica; font-size: 15px; font-style: normal; font-variant-ligatures: normal; font-variant-caps: normal; letter-spacing: normal; orphans: 2; text-indent: 0px; text-transform: none; widows: 2; word-spacing: 0px; -webkit-text-stroke-width: 0px; white-space: normal; text-decoration-thickness: initial; text-decoration-style: initial; text-decoration-color: initial; float: none; display: inline !important;&quot;&gt;CREATED_BY bigint&lt;/span&gt;" style="text;whiteSpace=wrap;html=1;align=center;labelBackgroundColor=none;fontStyle=1" parent="cD2ZIDqZozOFpC0rkneJ-64" vertex="1">
          <mxGeometry y="278" width="240" height="40" as="geometry" />
        </mxCell>
        <mxCell id="cD2ZIDqZozOFpC0rkneJ-73" value="UPDATED_BY bigint" style="text;strokeColor=none;fillColor=none;spacingLeft=4;spacingRight=4;overflow=hidden;rotatable=0;points=[[0,0.5],[1,0.5]];portConstraint=eastwest;fontSize=15;whiteSpace=wrap;html=1;align=center;labelBackgroundColor=none;fontStyle=1" parent="cD2ZIDqZozOFpC0rkneJ-64" vertex="1">
          <mxGeometry y="318" width="240" height="34" as="geometry" />
        </mxCell>
        <mxCell id="cD2ZIDqZozOFpC0rkneJ-74" value="UPDATED_AT Date" style="text;strokeColor=none;fillColor=none;spacingLeft=4;spacingRight=4;overflow=hidden;rotatable=0;points=[[0,0.5],[1,0.5]];portConstraint=eastwest;fontSize=15;whiteSpace=wrap;html=1;align=center;labelBackgroundColor=none;fontStyle=1" parent="cD2ZIDqZozOFpC0rkneJ-64" vertex="1">
          <mxGeometry y="352" width="240" height="34" as="geometry" />
        </mxCell>
        <mxCell id="cD2ZIDqZozOFpC0rkneJ-76" value="" style="edgeStyle=entityRelationEdgeStyle;fontSize=12;html=1;endArrow=ERzeroToMany;endFill=1;rounded=0;entryX=1;entryY=0.5;entryDx=0;entryDy=0;exitX=0;exitY=0.5;exitDx=0;exitDy=0;strokeWidth=3;" parent="1" source="cD2ZIDqZozOFpC0rkneJ-65" target="cD2ZIDqZozOFpC0rkneJ-24" edge="1">
          <mxGeometry width="100" height="100" relative="1" as="geometry">
            <mxPoint x="860" y="400" as="sourcePoint" />
            <mxPoint x="960" y="300" as="targetPoint" />
          </mxGeometry>
        </mxCell>
      </root>
    </mxGraphModel>
  </diagram>
</mxfile>
